<svg width="68" height="60" viewBox="0 0 68 60" fill="none" xmlns="http://www.w3.org/2000/svg">
<path d="M68.0004 26.9377C68.0004 27.1699 67.8077 27.4728 67.5744 27.6041C67.3411 27.7404 67.1484 27.6596 67.1484 27.4274C67.1484 27.1952 67.3411 26.8923 67.5744 26.761C67.8077 26.6298 68.0004 26.7055 68.0004 26.9377Z" fill="#01602E"/>
<path d="M67.1481 27.4272C67.1481 27.195 67.3408 26.8921 67.5741 26.7608C67.7009 26.6851 67.8175 26.68 67.8936 26.7204L59.4449 21.5307C59.3688 21.4853 59.2522 21.4954 59.1254 21.5711C58.8921 21.7074 58.6994 22.0053 58.6994 22.2375C58.6994 22.3435 58.74 22.4192 58.8009 22.4546L67.2495 27.6443C67.1836 27.6089 67.143 27.5332 67.143 27.4272H67.1481Z" fill="#00833E"/>
<path d="M68.0004 29.1941C68.0004 29.4263 67.8077 29.7292 67.5744 29.8605C67.3411 29.9968 67.1484 29.916 67.1484 29.6838C67.1484 29.4516 67.3411 29.1487 67.5744 29.0174C67.8077 28.8811 68.0004 28.9619 68.0004 29.1941Z" fill="#01602E"/>
<path d="M67.1481 29.6839C67.1481 29.4516 67.3408 29.1487 67.5741 29.0175C67.7009 28.9418 67.8175 28.9367 67.8936 28.9771L59.4449 23.7874C59.3688 23.7419 59.2522 23.752 59.1254 23.8278C58.8921 23.9641 58.6994 24.2619 58.6994 24.4941C58.6994 24.6002 58.74 24.6759 58.8009 24.7112L67.2495 29.9009C67.1836 29.8656 67.143 29.7899 67.143 29.6839H67.1481Z" fill="#00833E"/>
<path d="M65.6421 33.1823L59.2472 29.3203L62.4421 27.5181L65.3175 29.9615L65.9717 32.1676L65.6421 33.1823Z" fill="#0A090D"/>
<path d="M62.0315 30.6027C62.0315 33.0007 60.0791 36.0701 57.6703 37.4533C55.2614 38.8366 53.309 38.0187 53.309 35.6157C53.309 33.2127 55.2614 30.1483 57.6703 28.7651C60.0791 27.3818 62.0315 28.1997 62.0315 30.6027Z" fill="#0A090D"/>
<path d="M53.3042 35.6204C53.3042 33.2224 55.2567 30.153 57.6655 28.7698C58.984 28.0125 60.1606 27.9166 60.9618 28.3811L58.8573 27.1745C58.056 26.7151 56.8795 26.806 55.561 27.5632C53.1521 28.9465 51.1997 32.0159 51.1997 34.4138C51.1997 35.4992 51.6054 36.2615 52.2646 36.6402L54.3641 37.8518C53.6998 37.4681 53.2992 36.7058 53.2992 35.6204H53.3042Z" fill="#393942"/>
<path d="M64.9729 32.2992C64.9729 34.6971 63.0205 37.7665 60.6117 39.1498C58.2028 40.533 56.2504 39.7152 56.2504 37.3122C56.2504 34.9092 58.2028 31.8448 60.6117 30.4616C63.0205 29.0783 64.9729 29.8961 64.9729 32.2992Z" fill="#0A090D"/>
<path d="M62.9949 33.435C62.9949 34.7475 61.9249 36.4236 60.6114 37.1808C59.2929 37.9381 58.2279 37.4888 58.2279 36.1762C58.2279 34.8636 59.298 33.1876 60.6114 32.4303C61.9299 31.6731 62.9949 32.1224 62.9949 33.435Z" fill="#01602E"/>
<path d="M62.6861 33.6112C62.6861 34.7521 61.758 36.2111 60.6069 36.8724C59.4608 37.5338 58.5276 37.14 58.5276 35.9991C58.5276 34.8581 59.4557 33.3992 60.6069 32.7378C61.753 32.0765 62.6861 32.4703 62.6861 33.6112Z" fill="#004320"/>
<path d="M58.5933 35.4795L59.6988 36.1156L61.5244 33.4904L60.4189 32.8594C59.5213 33.45 58.7961 34.5152 58.5933 35.4795Z" fill="#01602E"/>
<path d="M61.8189 34.1114C61.8189 34.7778 61.2763 35.6259 60.6119 36.0096C59.9425 36.3932 59.405 36.1661 59.405 35.4997C59.405 34.8333 59.9476 33.9852 60.6119 33.6015C61.2813 33.2178 61.8189 33.445 61.8189 34.1114Z" fill="#00833E"/>
<path d="M56.2455 37.3169C56.2455 34.919 58.198 31.8496 60.6068 30.4663C61.9253 29.7091 63.1019 29.6131 63.9031 30.0776L61.7985 28.871C60.9973 28.4116 59.8208 28.5025 58.5022 29.2598C56.0934 30.643 54.141 33.7124 54.141 36.1104C54.141 37.1958 54.5467 37.9581 55.2059 38.3367L57.3054 39.5483C56.6411 39.1646 56.2405 38.4023 56.2405 37.3169H56.2455Z" fill="#393942"/>
<path d="M54.4702 38.4023C54.4702 40.8003 52.5178 43.8697 50.109 45.2529C47.7001 46.6362 45.7477 45.8183 45.7477 43.4153C45.7477 41.0123 47.7001 37.948 50.109 36.5647C52.5178 35.1815 54.4702 35.9993 54.4702 38.4023Z" fill="#0A090D"/>
<path d="M52.4923 39.538C52.4923 40.8506 51.4223 42.5266 50.1089 43.2839C48.7903 44.0411 47.7254 43.5918 47.7254 42.2792C47.7254 40.9667 48.7954 39.2906 50.1089 38.5334C51.4274 37.7761 52.4923 38.2254 52.4923 39.538Z" fill="#01602E"/>
<path d="M52.1831 39.715C52.1831 40.8559 51.2551 42.3149 50.1039 42.9762C48.9578 43.6375 48.0247 43.2438 48.0247 42.1028C48.0247 40.9619 48.9528 39.5029 50.1039 38.8416C51.25 38.1803 52.1831 38.574 52.1831 39.715Z" fill="#004320"/>
<path d="M48.0906 41.5825L49.1961 42.2186L51.0218 39.5934L49.9162 38.9624C49.0186 39.5531 48.2934 40.6183 48.0906 41.5825Z" fill="#01602E"/>
<path d="M51.3158 40.2149C51.3158 40.8813 50.7732 41.7294 50.1089 42.1131C49.4395 42.4967 48.9019 42.2696 48.9019 41.6032C48.9019 40.9368 49.4445 40.0887 50.1089 39.705C50.7732 39.3213 51.3158 39.5485 51.3158 40.2149Z" fill="#00833E"/>
<path d="M45.7425 43.4156C45.7425 41.0176 47.6949 37.9482 50.1037 36.5649C51.4223 35.8077 52.5988 35.7118 53.4001 36.1762L51.2955 34.9697C50.4942 34.5103 49.3177 34.6011 47.9992 35.3584C45.5903 36.7416 43.6379 39.811 43.6379 42.209C43.6379 43.2944 44.0436 44.0567 44.7029 44.4353L46.8024 45.6469C46.138 45.2633 45.7374 44.501 45.7374 43.4156H45.7425Z" fill="#393942"/>
<path d="M44.8547 44.9046L38.8199 42.0068C38.8199 42.0068 39.2662 37.438 41.599 35.1208C43.9318 32.8036 56.4476 25.0999 58.8615 24.4739C61.2754 23.8529 64.5616 27.8411 64.5616 27.8411L56.5693 31.5416L48.0192 36.3829L45.94 40.5529L44.8598 44.8995L44.8547 44.9046Z" fill="#35353F"/>
<path d="M66.1599 32.8594C66.1853 30.1332 65.3029 28.5783 64.4306 27.71C63.6902 26.9679 62.5289 26.8367 61.6211 27.3617L48.3244 35.0604L48.6438 37.2969L63.0005 29.1942C65.9114 28.9368 65.6376 33.1875 65.6376 33.1875L66.1548 32.8644L66.1599 32.8594Z" fill="#292930"/>
<path d="M48.3237 35.0602C45.5903 37.3017 44.8549 44.9045 44.8549 44.9045L45.8033 44.536C45.8033 39.5331 48.6482 37.2916 48.6482 37.2916L48.3287 35.0552L48.3237 35.0602Z" fill="#292930"/>
<path d="M32.0603 38.7863L33.5918 39.6849L28.3127 42.7593L28.3177 40.952L32.0603 38.7863Z" fill="#292930"/>
<path d="M32.0603 38.7862L28.3178 40.9519L23.5964 38.2258L27.339 36.0601L32.0603 38.7862Z" fill="#35353F"/>
<path d="M43.2373 38.2307L43.2221 43.3447L32.6435 49.4684L32.6537 44.3494L43.2373 38.2307Z" fill="#292930"/>
<path d="M32.6536 44.3493L32.6435 49.4683L28.7031 47.2016L28.7183 42.0876L32.6536 44.3493Z" fill="#0A090D"/>
<path d="M43.2376 38.2304L32.6539 44.349L28.7186 42.0874L39.2972 35.9688L43.2376 38.2304Z" fill="#35353F"/>
<path d="M32.3137 43.1526C32.405 43.2031 32.5218 43.2334 32.6436 43.2283V43.9553C32.5268 43.9553 32.4101 43.9301 32.3187 43.8796C32.2274 43.8291 32.1868 43.7584 32.1868 43.6928V42.9658C32.1868 43.0314 32.2274 43.1021 32.3187 43.1526H32.3137Z" fill="#0A090D"/>
<path d="M32.9628 43.1526C33.0542 43.1021 33.0999 43.0314 33.0999 42.9658V43.6928C33.0999 43.7635 33.0593 43.8291 32.9679 43.8796C32.8766 43.9301 32.7598 43.9553 32.6431 43.9553V43.2283C32.7598 43.2283 32.8766 43.2031 32.9679 43.1526H32.9628Z" fill="#292930"/>
<path d="M32.3138 42.7738C32.1313 42.8799 32.1313 43.0465 32.3138 43.1474C32.4913 43.2534 32.7855 43.2534 32.963 43.1474C33.1455 43.0414 33.1455 42.8748 32.963 42.7738C32.7855 42.6678 32.4913 42.6678 32.3138 42.7738Z" fill="#35353F"/>
<path d="M32.2024 43.0268C32.3241 43.0975 32.4813 43.1328 32.6436 43.1328V43.4408C32.4864 43.4408 32.3292 43.4054 32.2075 43.3348C32.0857 43.2641 32.03 43.1732 32.03 43.0823V42.7744C32.03 42.8653 32.0857 42.9561 32.2075 43.0268H32.2024Z" fill="#01602E"/>
<path d="M33.075 43.0268C33.1967 42.9561 33.2576 42.8653 33.2576 42.7744V43.0823C33.2576 43.1732 33.2018 43.2641 33.0801 43.3348C32.9584 43.4054 32.8012 43.4408 32.644 43.4408V43.1328C32.8012 43.1328 32.9584 43.0975 33.075 43.0268Z" fill="#01602E"/>
<path d="M32.2029 42.5218C31.9595 42.6631 31.9595 42.8853 32.2029 43.0266C32.4413 43.168 32.8368 43.168 33.0752 43.0266C33.3186 42.8853 33.3186 42.6631 33.0752 42.5218C32.8368 42.3804 32.4463 42.3804 32.2029 42.5218Z" fill="#00AA51"/>
<path d="M67.3357 14.3316L45.8033 1.95302L46.3154 1.66022L67.8479 14.0337L67.3357 14.3316Z" fill="#E3E3E1"/>
<path d="M67.3353 14.3319V23.6663L67.8479 23.3685V14.0341L67.3353 14.3319Z" fill="#939294"/>
<path d="M45.8031 1.95319V11.2876L67.3356 23.6662V14.3318L45.8031 1.95319Z" fill="#B4B3B5"/>
<path d="M34.6211 42.4611L66.5293 23.2017L46.8022 11.863L13.5754 30.9559L34.6211 42.4611Z" fill="#818182"/>
<path d="M46.8028 2.52864L12.577 22.3283V21.046L45.8037 1.95312L46.8028 2.52864Z" fill="#E3E3E1"/>
<path d="M46.8028 11.8632V2.52881L12.577 22.3285L13.576 30.9561L46.8028 11.8632Z" fill="#939294"/>
<path d="M67.3356 14.3319L33.1098 34.1315V32.8492L66.3366 13.7563L67.3356 14.3319Z" fill="#E3E3E1"/>
<path d="M67.3356 23.6662V14.3318L34.6261 33.253L34.621 42.4612L67.3356 23.6662Z" fill="#939294"/>
<path d="M66.0732 16.0281L35.4631 33.6014V40.5278L66.0732 22.9393V16.0281Z" fill="#727173"/>
<path d="M66.0728 16.0282V22.9394L66.494 23.1817V15.7859L66.0728 16.0282Z" fill="#B4B3B5"/>
<path d="M66.0733 22.9392L35.4633 40.5276V41.0123L66.4942 23.1815L66.0733 22.9392Z" fill="#E3E3E1"/>
<path d="M61.4534 18.6835V25.5947L61.8747 25.837V18.4412L61.4534 18.6835Z" fill="#B4B3B5"/>
<path d="M55.1492 22.3084V29.2196L55.5705 29.4619V22.061L55.1492 22.3084Z" fill="#B4B3B5"/>
<path d="M48.8465 25.9279V32.8391L49.2677 33.0814V25.6855L48.8465 25.9279Z" fill="#B4B3B5"/>
<path d="M42.9636 29.3106V36.7064L44.6472 35.7372V28.3413L42.9636 29.3106Z" fill="#939294"/>
<path d="M49.2674 25.6854V33.0813L50.946 32.117V24.7212L49.2674 25.6854Z" fill="#939294"/>
<path d="M55.5711 22.0607V29.4616L57.2497 28.4923V21.0964L55.5711 22.0607Z" fill="#939294"/>
<path d="M61.839 18.5118V25.9076L63.5176 24.9434V17.5425L61.839 18.5118Z" fill="#939294"/>
<path d="M42.5423 29.5529V36.4641L42.9635 36.7064V29.3105L42.5423 29.5529Z" fill="#B4B3B5"/>
<path d="M43.9371 3.90201L45.9707 0.600382C46.0569 0.464076 46.1786 0.353012 46.3206 0.282335L46.351 0.26719C46.488 0.201561 46.6502 0.287384 46.6604 0.438834L46.8227 2.19566L43.9321 3.90201H43.9371Z" fill="#939294"/>
<path d="M46.3255 0.282323L46.3559 0.267178C46.3965 0.246985 46.4371 0.241936 46.4726 0.246985L46.1531 0.0400019C46.0922 -0.000384986 46.0111 -0.0155301 45.935 0.0198084L45.9046 0.0349535C45.7575 0.105631 45.6358 0.216694 45.5547 0.353L43.5211 3.65463L43.942 3.89695L45.9756 0.595321C46.0618 0.459016 46.1835 0.347952 46.3255 0.277275V0.282323Z" fill="#E3E3E1"/>
<path d="M46.6555 0.852609C46.6555 0.993963 46.5388 1.18075 46.3916 1.26153C46.2495 1.3423 46.1277 1.29686 46.1277 1.15046C46.1277 1.00406 46.2444 0.822319 46.3916 0.741545C46.5337 0.660772 46.6555 0.706207 46.6555 0.852609Z" fill="#0A090D"/>
<path d="M46.1271 1.15593C46.1271 1.01458 46.2439 0.82779 46.3911 0.747016C46.4723 0.701581 46.5383 0.696532 46.589 0.726823L46.4926 0.671291C46.4469 0.646049 46.3758 0.646049 46.2946 0.691484C46.1525 0.772258 46.0307 0.959047 46.0307 1.1004C46.0307 1.16603 46.0561 1.20642 46.0967 1.23166L46.1931 1.29224C46.1525 1.267 46.1271 1.22156 46.1271 1.16098V1.15593Z" fill="#35353F"/>
<path d="M64.5268 15.7354L66.5604 12.4338C66.6466 12.2975 66.7683 12.1864 66.9103 12.1107L66.9408 12.0955C67.0777 12.0299 67.24 12.1157 67.2501 12.2672L67.4124 14.024L64.5218 15.7304L64.5268 15.7354Z" fill="#939294"/>
<path d="M66.9153 12.1153L66.9458 12.1002C66.9863 12.08 67.0269 12.0749 67.0624 12.08L66.7429 11.873C66.6821 11.8326 66.6009 11.8175 66.5249 11.8528L66.4944 11.868C66.3474 11.9386 66.2257 12.0497 66.1445 12.186L64.1109 15.4876L64.5319 15.73L66.5654 12.4283C66.6516 12.292 66.7733 12.181 66.9153 12.1052V12.1153Z" fill="#E3E3E1"/>
<path d="M67.2454 12.6861C67.2454 12.8274 67.1287 13.0142 66.9815 13.095C66.8393 13.1758 66.7175 13.1303 66.7175 12.9839C66.7175 12.8375 66.8343 12.6558 66.9815 12.575C67.1236 12.4942 67.2454 12.5397 67.2454 12.6861Z" fill="#0A090D"/>
<path d="M66.7178 12.9893C66.7178 12.8479 66.8346 12.6611 66.9818 12.5803C67.063 12.5349 67.129 12.5299 67.1797 12.5601L67.0833 12.5046C67.0376 12.4794 66.9665 12.4794 66.8853 12.5248C66.7432 12.6056 66.6214 12.7924 66.6214 12.9337C66.6214 12.9994 66.6468 13.0397 66.6874 13.065L66.7838 13.1256C66.7432 13.1003 66.7178 13.0549 66.7178 12.9943V12.9893Z" fill="#35353F"/>
<path d="M34.1091 29.7192L12.5766 17.3407L13.0888 17.0479L34.6212 29.4214L34.1091 29.7192Z" fill="#E3E3E1"/>
<path d="M34.1085 29.7192V42.7592L34.6211 42.4613V29.4214L34.1085 29.7192Z" fill="#939294"/>
<path d="M12.5769 17.3408V30.3807L34.1094 42.7593V29.7194L12.5769 17.3408Z" fill="#B4B3B5"/>
<path d="M43.1866 44.2484L42.8926 44.0768V40.1643L43.1866 40.3359V44.2484Z" fill="#00833E"/>
<path d="M33.3483 49.9479L33.0491 49.7763L42.8924 44.0767L43.1866 44.2483L33.3483 49.9479Z" fill="#00AA51"/>
<path d="M32.7498 50.9776L32.4559 50.806V45.5254L32.7549 45.697L32.7498 50.9776Z" fill="#00833E"/>
<path d="M32.7551 45.6974L32.4559 45.5257L43.4909 39.1345L43.7851 39.3062L32.7551 45.6974Z" fill="#00AA51"/>
<path d="M32.7502 50.978L43.7852 44.5918V39.3113L32.7552 45.7025V50.9831L32.7502 50.978ZM43.1817 44.2486L33.3435 49.9482V46.0357L43.1868 40.3361V44.2486H43.1817Z" fill="#01602E"/>
<path d="M1.02434 43.6831V50.0037L17.4501 59.0402L23.1147 56.1828V49.2565C23.1147 49.2565 18.2311 51.4828 14.9702 50.7155C11.7094 49.9481 1.02434 43.6882 1.02434 43.6882V43.6831Z" fill="#00AA51"/>
<path d="M17.9726 53.0477L17.8864 58.717L21.2131 57.1823L21.1979 56.5361L21.4413 51.9724L17.9726 53.0477Z" fill="#01602E"/>
<path d="M29.4593 44.8235C29.6013 44.874 29.7331 44.9346 29.865 45.0002L30.2656 44.9144C30.2656 44.9144 30.9452 45.1062 31.5841 46.0099C32.2282 46.9186 32.5172 49.2762 32.5172 49.2762L32.4564 49.5387L26.4064 46.3582C26.4064 46.3582 28.3943 44.4449 29.4593 44.8286V44.8235Z" fill="#0A090D"/>
<path d="M29.8239 45.2631L30.6251 45.773C30.6251 45.773 32.0248 46.0103 32.4508 49.534L32.5624 49.4785L32.6689 49.428C32.6689 49.428 32.3747 46.9038 31.7307 45.9951C31.0917 45.0915 29.9557 44.3241 29.9557 44.3241L29.8188 45.2631H29.8239Z" fill="#292930"/>
<path d="M32.618 50.8919C32.618 53.2898 30.6655 56.3592 28.2567 57.7425C25.8478 59.1257 23.8954 58.3079 23.8954 55.9049C23.8954 53.5019 25.8478 50.4375 28.2567 49.0542C30.6655 47.671 32.618 48.4888 32.618 50.8919Z" fill="#0A090D"/>
<path d="M30.6402 52.0277C30.6402 53.3403 29.5701 55.0163 28.2567 55.7736C26.9382 56.5309 25.8732 56.0816 25.8732 54.769C25.8732 53.4564 26.9432 51.7803 28.2567 51.0231C29.5752 50.2658 30.6402 50.7151 30.6402 52.0277Z" fill="#01602E"/>
<path d="M30.3308 52.2044C30.3308 53.3454 29.4028 54.8044 28.2516 55.4657C27.1055 56.127 26.1724 55.7332 26.1724 54.5923C26.1724 53.4514 27.1005 51.9924 28.2516 51.3311C29.3977 50.6697 30.3308 51.0635 30.3308 52.2044Z" fill="#004320"/>
<path d="M26.2384 54.0722L27.3439 54.7083L29.1696 52.0832L28.0641 51.4521C27.1664 52.0428 26.4413 53.108 26.2384 54.0722Z" fill="#01602E"/>
<path d="M29.4638 52.7041C29.4638 53.3705 28.9212 54.2186 28.2568 54.6023C27.5874 54.9859 27.0499 54.7588 27.0499 54.0924C27.0499 53.426 27.5925 52.5779 28.2568 52.1942C28.9262 51.8105 29.4638 52.0377 29.4638 52.7041Z" fill="#00833E"/>
<path d="M23.8904 55.9046C23.8904 53.5066 25.8429 50.4372 28.2517 49.0539C29.5702 48.2967 30.7467 48.2008 31.548 48.6652L29.4434 47.4587C28.6422 46.9993 27.4657 47.0901 26.1471 47.8474C23.7383 49.2306 21.7859 52.3 21.7859 54.698C21.7859 55.7834 22.1916 56.5457 22.8508 56.9243L24.9503 58.1359C24.286 57.7523 23.8854 56.99 23.8854 55.9046H23.8904Z" fill="#393942"/>
<path d="M29.9661 44.3288L30.6254 45.3587C30.6254 45.3587 27.3697 47.2569 26.3808 48.3221C25.3969 49.3873 24.1291 50.9523 23.7894 52.6081C23.4496 54.264 23.4851 56.9548 23.4851 56.9548H22.7345L22.1818 55.102C22.1818 55.102 22.5216 51.5127 22.4861 51.5379C22.4506 51.5631 23.7133 48.0242 23.7133 48.0242L27.3798 45.0407L29.9661 44.3339V44.3288Z" fill="#292930"/>
<path d="M29.6467 44.0566L29.9662 44.3292C29.9662 44.3292 26.9742 46.3182 26.5431 46.6161C25.255 47.4996 23.7489 49.736 23.2925 50.9122C22.8361 52.0885 22.7397 55.8647 22.7397 56.9551L22.1058 56.7986L21.2031 56.5412C21.2031 56.5412 21.0358 52.4722 21.5682 50.5084C22.1058 48.5446 26.1019 44.6927 28.2623 44.0061L29.6467 44.0616V44.0566Z" fill="#35353F"/>
<path d="M18.9105 58.7475L23.4848 56.9503V57.5611L18.8953 59.3836L18.9105 58.7475Z" fill="#0A090D"/>
<path d="M22.7341 56.9501L21.1975 56.5361L18.8952 57.8891L18.9104 58.7473L23.4846 56.9501H22.7341Z" fill="#35353F"/>
<path d="M21.1725 53.4666L22.4505 53.825C22.4505 53.825 20.1025 55.5616 18.997 55.5515L18.6166 54.8195L21.1725 53.4666Z" fill="#35353F"/>
<path d="M18.9971 55.5517C20.1026 55.5618 22.4506 53.8252 22.4506 53.8252V54.0877C22.4506 54.0877 20.0468 55.8142 18.9413 55.8042L18.6167 55.0822V54.8197L18.9971 55.5517Z" fill="#0A090D"/>
<path d="M1.3791 46.6465L0.689409 46.2527C0.689409 46.2527 -0.598688 47.0554 0.354704 47.6056C1.31317 48.1559 16.5827 56.935 16.5827 56.935C16.5827 56.935 17.4296 57.4298 18.8495 56.6624L17.7288 56.0415L16.0958 55.5467L1.84057 47.3583L1.37402 46.6465H1.3791Z" fill="#00AA51"/>
<path d="M18.8553 56.6572C17.4354 57.4246 16.5885 56.9298 16.5885 56.9298C16.5885 56.9298 0.461926 47.661 0.3605 47.6004C0.101868 47.454 0.0105915 47.2874 0.0105915 47.1208V50.0338C0.0105915 50.2003 0.101868 50.3669 0.3605 50.5133C1.31896 51.0636 16.5885 59.8427 16.5885 59.8427C16.5885 59.8427 17.3644 60.2971 18.6778 59.661C18.7894 59.6054 18.8807 59.4994 18.9162 59.3783C19.332 57.889 18.8604 56.6572 18.8604 56.6572H18.8553Z" fill="#00833E"/>
<path d="M15.9744 57.3488L13.0229 55.6526V57.0207L15.9744 58.7169V57.3488Z" fill="#35353F"/>
<path d="M15.8886 57.3946V58.5708L14.8135 57.9499V56.7736L15.8886 57.3946Z" fill="#DA7D25"/>
<path d="M13.1094 55.7988L14.8134 56.7732V57.9494L13.1094 56.97V55.7988Z" fill="white"/>
<path d="M0.421073 49.8068L3.36746 51.5031V50.135L0.421073 48.4387V49.8068Z" fill="#35353F"/>
<path d="M0.502007 49.7612V48.585L1.58218 49.2059V50.3771L0.502007 49.7612Z" fill="#DA7D25"/>
<path d="M3.28128 51.3566L1.58241 50.3772V49.206L3.28128 50.1803V51.3566Z" fill="white"/>
<path d="M1.37898 43.7739L0.826206 43.4558C0.739996 43.4053 0.633503 43.4104 0.552362 43.471C0.248089 43.6981 -0.406101 44.2938 0.354586 44.728C1.31305 45.2783 16.5826 54.0574 16.5826 54.0574C16.5826 54.0574 17.4294 54.5521 18.8494 53.7847L17.7287 53.1638L16.0957 52.6691L1.84045 44.4806L1.3739 43.7688L1.37898 43.7739Z" fill="#00AA51"/>
<path d="M4.26476 48.7616V49.1655L5.29422 48.5647V48.1457L4.26476 48.7616Z" fill="#01602E"/>
<path d="M18.8547 53.7846C17.4347 54.5519 16.5878 54.0572 16.5878 54.0572C16.5878 54.0572 0.461281 44.7884 0.359856 44.7278C0.101223 44.5814 0.00994682 44.4148 0.00994682 44.2482V46.4392C0.00994682 46.6058 0.101223 46.7724 0.359856 46.9188C0.643845 47.0854 2.21086 47.984 4.26471 49.1653V48.7564L12.4294 53.4362V53.8553C14.8078 55.2234 16.5878 56.2482 16.5878 56.2482C16.5878 56.2482 17.4347 56.7429 18.8547 55.9756C19.3009 55.2133 18.8547 53.7846 18.8547 53.7846Z" fill="#00833E"/>
<path d="M7.47476 50.0891L3.84376 47.9991V47.3933L7.47476 49.4833V50.0891Z" fill="#00AA51"/>
<path d="M3.84317 47.9991L4.36087 47.6912L3.84317 47.3933V47.9991Z" fill="#01602E"/>
<path d="M12.0998 52.7449L8.46368 50.6549V50.0491L12.0998 52.1391V52.7449Z" fill="#00AA51"/>
<path d="M8.46328 50.6549L8.98099 50.3469L8.46328 50.0491V50.6549Z" fill="#01602E"/>
<path d="M0.359408 45.3741C0.100774 45.2277 0.0094986 45.0561 0.0094986 44.8945V45.985C0.0094986 46.1516 0.100774 46.3182 0.359408 46.4646C0.526759 46.5605 1.14546 46.9139 2.03799 47.4288V46.3384C1.02375 45.7528 0.379693 45.3842 0.359408 45.3741Z" fill="white"/>
<path d="M0.440549 46.4193C0.602829 46.5152 1.18603 46.8484 2.03799 47.3381V47.434C1.14039 46.9191 0.526759 46.5657 0.359408 46.4698C0.100775 46.3234 0.00442266 46.1517 0.00442266 45.9902V45.7529C0.00442266 45.8337 0.0348504 46.182 0.440549 46.4244V46.4193Z" fill="#00AA51"/>
<path d="M16.588 54.7034C16.588 54.7034 15.8578 54.2844 14.7066 53.623V54.7135C15.8578 55.3748 16.588 55.7938 16.588 55.7938C16.588 55.7938 17.1509 56.122 18.1297 55.8292V54.7387C17.1509 55.0315 16.588 54.7034 16.588 54.7034Z" fill="white"/>
<path d="M14.7929 53.6682V54.6628L14.7071 54.7132V53.6228C14.7373 53.6379 14.7626 53.6531 14.7929 53.6733V53.6682Z" fill="#01602E"/>
<path d="M14.7925 54.663C15.9437 55.3243 16.6739 55.7434 16.6739 55.7434C16.6739 55.7434 17.2419 55.9958 18.0431 55.7686L18.1344 55.8241C17.1557 56.1169 16.5928 55.7888 16.5928 55.7888C16.5928 55.7888 15.8625 55.3698 14.7113 54.7084L14.7976 54.658L14.7925 54.663Z" fill="#00AA51"/>
<path d="M18.1297 54.7339V55.8243L18.0388 55.7688V54.7591C18.0691 54.749 18.0994 54.749 18.1297 54.7389V54.7339Z" fill="#01602E"/>
<path d="M2.43517 29.3052L2.58157 29.2194L2.57653 32.3342L2.43012 32.42L2.43517 29.3052Z" fill="#292930"/>
<path d="M1.38971 28.7096L1.54185 28.6238L2.58145 29.2195L2.43439 29.3053L1.38971 28.7096Z" fill="#656575"/>
<path d="M2.43484 29.3052L2.42977 32.42L1.38509 31.8243L1.39016 28.7095L2.43484 29.3052Z" fill="#0A090D"/>
<path d="M2.43517 32.7229L2.58157 32.6371L2.57653 33.3186L2.43012 33.4045L2.43517 32.7229Z" fill="#C5C5C5"/>
<path d="M1.38971 32.1271L1.53678 32.0413L2.58145 32.637L2.43439 32.7228L1.38971 32.1271Z" fill="#656575"/>
<path d="M2.43484 32.7229L2.42977 33.4044L1.38509 32.8037L1.39016 32.1272L2.43484 32.7229Z" fill="#0A090D"/>
<path d="M3.48389 35.1662C3.5346 35.1662 3.58024 35.146 3.61067 35.1006C3.66138 35.0299 3.64617 34.934 3.57518 34.8835L1.87124 33.6365V28.7194L3.26075 29.3656C3.34189 29.401 3.43318 29.3656 3.46868 29.2899C3.50418 29.2091 3.46868 29.1183 3.39261 29.0829L1.77995 28.3307C1.72924 28.3105 1.67346 28.3105 1.62781 28.3408C1.58217 28.3711 1.55682 28.4216 1.55682 28.4721V33.7173C1.55682 33.7678 1.58218 33.8132 1.62275 33.8435L3.38753 35.1359C3.41796 35.1561 3.44839 35.1662 3.47882 35.1662H3.48389Z" fill="#292930"/>
<path d="M19.1592 53.3405V45.8992L20.6755 37.938L29.6465 32.8593V44.0616L27.1768 45.662C25.8634 46.5151 24.7731 47.6561 23.9921 49.009C23.6472 49.6047 23.2466 50.3266 22.8054 51.1596L19.1643 53.3456L19.1592 53.3405Z" fill="#01602E"/>
<path d="M27.0348 41.941L26.8827 41.8704L25.1432 42.8346L25.2954 42.9255L27.0348 41.941Z" fill="#00AA51"/>
<path d="M25.2962 42.9256V43.4001L25.1447 43.3093V42.8347L25.2962 42.9256Z" fill="#00AA51"/>
<path d="M27.0349 41.9415V42.4161L25.2955 43.4005V42.926L27.0349 41.9415Z" fill="#00833E"/>
<path d="M17.1107 53.0477V45.0006L18.627 37.938C18.627 37.938 19.6464 38.5185 20.6758 37.938L19.1595 45.8993V53.3405C19.1595 53.3405 17.7751 53.81 17.1107 53.0477Z" fill="#00833E"/>
<path d="M0.82168 37.3677V43.3399C0.82168 43.6933 1.01439 44.0164 1.31866 44.188L17.1105 53.0479V46.8081L0.82168 37.3677Z" fill="#00833E"/>
<path d="M17.1154 45.0008V46.8081C14.8435 45.9448 2.52036 38.5843 1.62275 38.0138C1.26776 37.7917 1.00912 37.5645 0.826561 37.3676C0.826561 36.0854 1.14098 35.217 1.14098 35.217L1.37426 35.7623L17.1154 45.0008Z" fill="#00AA51"/>
<path d="M17.1162 46.8078C17.1162 46.8078 18.1456 47.343 19.165 46.7927V45.8941L19.378 44.7683C19.378 44.7683 18.4854 45.9042 17.1162 44.9955V46.8028V46.8078Z" fill="#00AA51"/>
<path d="M1.23267 34.9291L1.15153 35.1765C1.07546 35.3986 1.16674 35.646 1.37466 35.7621L17.5266 45.2581C17.9069 45.4852 18.4039 45.2682 18.485 44.829L19.7021 38.8113C19.8441 38.0692 19.3015 37.9531 18.6372 37.5896L1.23774 34.9241L1.23267 34.9291Z" fill="#0A090D"/>
<path d="M1.50139 35.6359L17.7344 45.142C18.1097 45.3691 18.6118 45.147 18.6929 44.7129L18.8298 44.0364L19.9151 38.6952C20.0571 37.9582 19.5094 37.837 18.845 37.4735L7.27753 31.3246L3.16983 29.1387L1.23769 34.9291C1.15148 35.1967 1.25797 35.4845 1.50646 35.6309L1.50139 35.6359Z" fill="#202026"/>
<path d="M3.53525 29.3054L8.65213 32.188L2.9267 35.4594L1.75017 34.2629L3.53525 29.3054Z" fill="#6A687D"/>
<path d="M1.23236 34.9294L1.61778 33.7683L3.6412 34.9345C3.6412 34.9345 5.80662 34.1166 7.39899 35.0153C10.2237 36.6055 8.62623 37.812 10.9996 39.3367L13.3171 39.4629C13.7533 39.4881 14.1691 39.6648 14.4886 39.9677L18.6673 43.9155L18.8245 44.0367L18.6876 44.7132C18.6064 45.1473 18.1095 45.3694 17.7291 45.1423L1.49607 35.6362C1.24758 35.4898 1.14108 35.202 1.22729 34.9345L1.23236 34.9294Z" fill="#34343E"/>
<path d="M16.9888 44.7027L17.5822 45.2934C18.1958 45.5357 18.6116 45.1469 18.6928 44.7128L19.9099 38.6951C19.9758 38.3418 19.8896 38.1247 19.6969 37.9631L19.6208 38.1247C19.6208 38.1247 19.778 38.3115 19.7222 38.6093C19.6665 38.9122 18.4899 44.6421 18.4899 44.6421C18.4899 44.6421 18.3124 45.359 17.5822 45.0308C17.3692 44.9349 17.1765 44.844 16.9888 44.7128V44.7027Z" fill="#0A090D"/>
<path opacity="0.5" d="M8.2971 39.6243L9.53448 40.3512L14.8035 35.2675L13.5255 34.5911L8.2971 39.6243Z" fill="#6A687D"/>
<path opacity="0.5" d="M11.6592 41.5628L12.3844 41.9818L17.6585 36.9031L16.8927 36.5295L11.6592 41.5628Z" fill="#6A687D"/>
<path opacity="0.5" d="M4.05227 37.1453L6.50168 38.579L11.6743 33.6064L9.13365 32.2534L4.05227 37.1453Z" fill="#6A687D"/>
<path d="M16.9179 49.3121L16.923 48.8376L1.47094 39.9575L1.03989 40.1847L16.9179 49.3121Z" fill="#00AA51"/>
<path d="M1.0398 40.1845L1.47122 39.9573L1.04487 39.71L1.0398 40.1845Z" fill="#01602E"/>
<path d="M16.9182 50.7107L16.9232 50.2311L1.47118 41.3511L1.04013 41.5833L16.9182 50.7107Z" fill="#00AA51"/>
<path d="M1.04005 41.583L1.47147 41.3508L1.04512 41.1084L1.04005 41.583Z" fill="#01602E"/>
<path d="M16.9182 52.1088L16.9232 51.6292L1.47118 42.7492L1.04013 42.9814L16.9182 52.1088Z" fill="#00AA51"/>
<path d="M1.04005 42.9813L1.47147 42.7491L1.04512 42.5017L1.04005 42.9813Z" fill="#01602E"/>
<path d="M29.6464 32.8595L20.6754 37.9432C20.6754 37.9432 19.8234 38.5339 18.6266 37.9432C18.6266 37.9432 3.66135 29.5731 3.16437 29.1439C3.16437 29.1439 3.25059 28.836 3.55993 28.4725C3.59036 28.4372 3.62078 28.3968 3.66135 28.3615C4.14819 27.8465 5.14722 27.0337 6.68381 26.1301C9.35128 24.56 12.1151 23.0657 12.2825 22.9749H12.2926L29.6565 32.8646L29.6464 32.8595Z" fill="#00833E"/>
<path d="M29.6469 32.8595L28.7493 32.6878L20.5998 37.2919C20.0724 37.5898 19.4233 37.5898 18.8959 37.2869L3.55541 28.4724C3.58584 28.4371 3.61626 28.3967 3.65683 28.3614C4.14367 27.8465 5.14271 27.0337 6.6793 26.13C9.34677 24.56 12.1106 23.0657 12.2779 22.9748H12.2881L29.652 32.8645L29.6469 32.8595Z" fill="#00AA51"/>
<path d="M26.8015 35.7571V40.7852L20.0162 44.7533L20.9189 39.1092L26.8015 35.7571Z" fill="#34343E"/>
<path d="M20.0568 44.4859L26.5936 40.6643L26.8015 40.7855L20.0162 44.7535L20.0568 44.4859Z" fill="#00AA51"/>
<path d="M26.8015 35.7571V40.7852L26.5946 40.6641V35.8782L26.8015 35.7571Z" fill="#00833E"/>
<path d="M22.811 40.8002L22.9574 40.7144L22.9473 43.8292L22.8009 43.915L22.811 40.8002Z" fill="#292930"/>
<path d="M21.7657 40.1992L21.9128 40.1134L22.9574 40.7141L22.8104 40.7999L21.7657 40.1992Z" fill="#656575"/>
<path d="M22.8105 40.8003L22.8003 43.9151L21.7556 43.3144L21.7658 40.1996L22.8105 40.8003Z" fill="#0A090D"/>
<path d="M22.8069 44.2174L22.9533 44.1316V44.8131L22.8069 44.8989V44.2174Z" fill="#292930"/>
<path d="M21.7614 43.6171L21.9136 43.5312L22.9532 44.132L22.8061 44.2178L21.7614 43.6171Z" fill="#656575"/>
<path d="M22.8062 44.2179V44.8995L21.7615 44.2987V43.6172L22.8062 44.2179Z" fill="#0A090D"/>
<path d="M22.0901 45.3638C22.1256 45.3638 22.1611 45.3487 22.1916 45.3285C22.2271 45.2982 22.2473 45.2528 22.2473 45.2073V39.9621C22.2473 39.9065 22.2169 39.851 22.1662 39.8258L20.7513 39.0433C20.6753 39.0029 20.5789 39.0281 20.5383 39.1039C20.4978 39.1796 20.5231 39.2755 20.5992 39.3159L21.9329 40.0529V45.0155L20.939 44.8388C20.8528 44.8236 20.7716 44.8792 20.7564 44.965C20.7412 45.0508 20.797 45.1316 20.8832 45.1467L22.0648 45.3537C22.0648 45.3537 22.0851 45.3537 22.0901 45.3537V45.3638Z" fill="#292930"/>
<path d="M28.8298 32.4756L8.65134 20.8795L13.4183 18.1584L33.6018 29.7545L28.8298 32.4756Z" fill="#E3E3E1"/>
<path d="M28.8297 32.4757V33.2178L30.1989 32.4454L33.6017 32.7079V29.7546L28.8297 32.4757Z" fill="#939294"/>
<path d="M8.65177 20.8799V21.6169L28.8302 33.2181V32.476L8.65177 20.8799Z" fill="#B4B3B5"/>
<path d="M23.7893 52.6034C24.1291 50.9525 25.3969 49.3825 26.3807 48.3173C27.1668 47.4692 29.388 46.096 30.2653 45.571C30.4935 45.4347 30.7826 45.4397 31.0006 45.5861C31.2086 45.7275 31.4469 45.9143 31.5838 46.1112C31.8475 46.5049 32.4003 47.8377 32.5677 49.4784L32.4561 49.534C32.1518 47.0148 31.3455 46.1768 30.9144 45.9042C30.7623 45.8083 30.5696 45.8083 30.4175 45.9042C29.7278 46.3131 27.5421 47.6257 26.7155 48.4788C25.7316 49.4936 24.3269 51.4119 24.0784 52.9063C23.8299 54.4006 23.7843 57.4801 23.7843 57.4801L23.4901 57.5659V56.9601C23.4901 56.9601 23.4546 54.2643 23.7944 52.6135L23.7893 52.6034Z" fill="#35353F"/>
<path d="M8.89481 44.9653V46.5707L8.79384 46.6414L8.79889 45.036L8.89481 44.9653Z" fill="#01602E"/>
<path d="M8.79898 45.0357L8.79391 46.6411L7.21168 45.7172V44.132L8.79898 45.0357Z" fill="#00833E"/>
<path d="M8.89493 44.9653L8.79858 45.0359L7.21128 44.1323L7.3127 44.0667L8.89493 44.9653Z" fill="#00AA51"/>
</svg>
